<?xml version="1.0" encoding="UTF-8" standalone="no"?>
<svg width="1024px" height="1024px" viewBox="0 0 1024 1024" version="1.1" xmlns="http://www.w3.org/2000/svg" xmlns:xlink="http://www.w3.org/1999/xlink" xmlns:sketch="http://www.bohemiancoding.com/sketch/ns">
    <!-- Generator: Sketch 3.2.2 (9983) - http://www.bohemiancoding.com/sketch -->
    <title>White on Orange</title>
    <desc>Created with Sketch.</desc>
    <defs>
        <linearGradient x1="50%" y1="0%" x2="50%" y2="100%" id="linearGradient-1">
            <stop stop-color="#FF7F00" offset="0%"></stop>
            <stop stop-color="#FF9833" offset="100%"></stop>
        </linearGradient>
        <path d="M472.688893,642.23341 C469.352438,648.788252 466.4352,654.667313 464.281889,659.594691 C452.317046,686.973605 459.075746,733.986532 436.483649,752.872144 C356.133452,820.040005 229.344389,659.594692 214.512358,584.645466 C213.205095,578.039604 214.437664,571.92378 217.77251,566.289504 L217.77251,566.289504 C242.435923,574.445212 273.833077,572.121639 314.352783,561.793684 C331.790416,557.349054 340.933381,554.524267 376.79104,542.958074 C402.142886,534.78062 414.663737,531.18495 425.475118,529.383377 C435.604673,527.695422 444.402637,527.115516 456.969263,527.178851 C455.034335,538.131579 454,549.850979 454,562 C454,593.64464 461.017443,622.374514 472.688893,642.23341 Z" id="path-2"></path>
        <path d="M551.202455,642.417796 C554.499769,648.898527 557.382525,654.71356 559.515625,659.594691 C571.480469,686.973605 564.721768,733.986532 587.313866,752.872144 C667.664062,820.040005 794.453125,659.594692 809.285156,584.645466 C810.60967,577.952435 809.326879,571.76246 805.89189,566.06671 L805.89189,566.06671 C781.128592,574.486396 749.531668,572.214608 708.647217,561.793684 C691.209584,557.349054 682.066619,554.524267 646.20896,542.958074 C620.857114,534.78062 608.336263,531.18495 597.524882,529.383377 C587.665983,527.740523 579.068468,527.147297 567.030085,527.17516 C568.965433,538.128947 570,549.849614 570,562 C570,593.742715 562.938992,622.552567 551.202455,642.417796 Z" id="path-3"></path>
        <path d="M459.47499,437.368353 C391.763901,374.843684 272.022558,292.000281 182.072929,292 C125.203125,291.999818 112.000001,312.652344 112,327.996094 C112,343.339844 127.828126,352.90625 141.875,383.984375 C155.921875,415.0625 159.253906,535.628906 217.234375,557.620728 C275.214847,579.612545 376.196532,529.480781 424.136719,521.492188 C436.307182,519.464142 447.959442,519.091413 458.572237,519.179919 C460.385421,511.118055 462.70495,503.552489 465.471181,496.633537 C458.265375,486.968553 454,474.982393 454,462 C454,453.193126 455.962869,444.844705 459.47499,437.368353 Z" id="path-4"></path>
        <path d="M564.517918,437.353261 C632.23193,374.830353 751.961242,292.000281 841.903634,292 C898.773438,291.999818 911.976562,312.652344 911.976562,327.996094 C911.976562,343.339844 896.148436,352.90625 882.101562,383.984375 C868.054688,415.0625 864.722656,535.628906 806.742188,557.620728 C748.761716,579.612545 647.780031,529.480781 599.839844,521.492188 C587.678323,519.465632 576.034243,519.091962 565.427719,519.179724 C563.614541,511.117932 561.295026,503.552433 558.528818,496.633538 C565.734625,486.968554 570,474.982393 570,462 C570,453.187199 568.034488,444.833469 564.517918,437.353261 Z" id="path-5"></path>
    </defs>
    <g id="Page-1" stroke="none" stroke-width="1" fill="none" fill-rule="evenodd" sketch:type="MSPage">
        <g id="White-on-Orange" sketch:type="MSArtboardGroup">
            <rect id="BG" fill="url(#linearGradient-1)" sketch:type="MSShapeGroup" x="0" y="0" width="1024" height="1024"></rect>
            <g id="Bottom-Left-Wing">
                <use fill="none" sketch:type="MSShapeGroup" xlink:href="#path-2"></use>
                <use fill-opacity="0.6" fill="#FFFFFF" fill-rule="evenodd" xlink:href="#path-2"></use>
            </g>
            <g id="Bottom-Right-Wing">
                <use fill="none" sketch:type="MSShapeGroup" xlink:href="#path-3"></use>
                <use fill-opacity="0.6" fill="#FFFFFF" fill-rule="evenodd" xlink:href="#path-3"></use>
            </g>
            <g id="Top-Left-Wing">
                <use fill="none" sketch:type="MSShapeGroup" xlink:href="#path-4"></use>
                <use fill-opacity="0.8" fill="#FFFFFF" fill-rule="evenodd" xlink:href="#path-4"></use>
            </g>
            <g id="Top-Right-Wing">
                <use fill="none" sketch:type="MSShapeGroup" xlink:href="#path-5"></use>
                <use fill-opacity="0.8" fill="#FFFFFF" fill-rule="evenodd" xlink:href="#path-5"></use>
            </g>
            <ellipse id="Body" fill="#FFFFFF" sketch:type="MSShapeGroup" cx="512" cy="562" rx="50" ry="100"></ellipse>
            <circle id="Head" fill="#FFFFFF" sketch:type="MSShapeGroup" cx="512" cy="462" r="50"></circle>
        </g>
    </g>
</svg>