<?xml version="1.0" encoding="UTF-8" standalone="no"?>
<svg
   xmlns:dc="http://purl.org/dc/elements/1.1/"
   xmlns:cc="http://creativecommons.org/ns#"
   xmlns:rdf="http://www.w3.org/1999/02/22-rdf-syntax-ns#"
   xmlns:svg="http://www.w3.org/2000/svg"
   xmlns="http://www.w3.org/2000/svg"
   viewBox="0 0 266.66666 266.66666"
   height="266.66666"
   width="266.66666"
   xml:space="preserve"
   id="svg2"
   version="1.1"><metadata
     id="metadata8"><rdf:RDF><cc:Work
         rdf:about=""><dc:format>image/svg+xml</dc:format><dc:type
           rdf:resource="http://purl.org/dc/dcmitype/StillImage" /></cc:Work></rdf:RDF></metadata><defs
     id="defs6"><clipPath
       id="clipPath24"
       clipPathUnits="userSpaceOnUse"><path
         style="clip-rule:evenodd"
         id="path22"
         d="m 107.8912,116.5924 c -3.3234,-0.3898 -6.1869,-2.2838 -7.8912,-4.9829 -1.70433,2.6991 -4.56782,4.5931 -7.89122,4.9829 l -6.20109,3.9156 c 4.99467,7.9099 13.71661,12.8253 23.25901,12.8253 15.1878,0 27.5,-12.3121 27.5,-27.5 0,-0.9486 -0.0487,-1.8943 -0.1456,-2.8337 l -16.5787,1.7094 16.6146,-1.3159 C 135.0797,84.74139 114.1134,66.66666 99.99804,66.66667 c -14.76418,-1e-5 -36.56027,19.28398 -36.66408,38.98053 -5.2e-4,0.0931 -5.2e-4,0.0931 -6.3e-4,0.1861 0,15.1879 12.31217,27.5 27.5,27.5 9.54237,0 18.26427,-4.9154 23.25897,-12.8253 z" /></clipPath><clipPath
       id="clipPath30"
       clipPathUnits="userSpaceOnUse"><path
         id="path28"
         d="M 0,0 H 200 V 200 H 0 Z" /></clipPath><clipPath
       id="clipPath40"
       clipPathUnits="userSpaceOnUse"><path
         style="clip-rule:evenodd"
         id="path38"
         d="M -20,216.6667 H 220 V -16.66667 H -20 Z M 119.9424,104.709 c 0.0381,0.3696 0.0576,0.7447 0.0576,1.1243 0,5.9831 -4.8502,10.8334 -10.8333,10.8334 -3.8596,0 -7.2478,-2.0184 -9.1667,-5.0572 -1.91886,3.0388 -5.30706,5.0572 -9.16667,5.0572 C 84.85025,116.6667 80,111.8164 80,105.8333 c 0,-0.0247 8e-5,-0.0495 2.5e-4,-0.0742 0.06571,-12.46534 16.67301,-22.42577 19.99779,-22.42577 3.23466,0 18.99626,9.40573 19.94436,21.37567 z" /></clipPath><clipPath
       id="clipPath46"
       clipPathUnits="userSpaceOnUse"><path
         id="path44"
         d="M 0,0 H 200 V 200 H 0 Z" /></clipPath><clipPath
       id="clipPath58"
       clipPathUnits="userSpaceOnUse"><path
         style="clip-rule:evenodd"
         id="path56"
         d="M -6.666667,203.3333 H 206.6667 V -3.333333 H -6.666667 Z M 119.9424,104.709 c 0.0381,0.3696 0.0576,0.7447 0.0576,1.1243 0,5.9831 -4.8502,10.8334 -10.8333,10.8334 -3.8596,0 -7.2478,-2.0184 -9.1667,-5.0572 -1.91886,3.0388 -5.30706,5.0572 -9.16667,5.0572 C 84.85025,116.6667 80,111.8164 80,105.8333 c 0,-0.0247 8e-5,-0.0495 2.5e-4,-0.0742 0.06571,-12.46534 16.67301,-22.42577 19.99779,-22.42577 3.23466,0 18.99626,9.40573 19.94436,21.37567 z" /></clipPath><clipPath
       id="clipPath64"
       clipPathUnits="userSpaceOnUse"><path
         id="path62"
         d="M 0,0 H 200 V 200 H 0 Z" /></clipPath><clipPath
       id="clipPath76"
       clipPathUnits="userSpaceOnUse"><path
         style="clip-rule:evenodd"
         id="path74"
         d="M -3.333333,200 H 203.3333 V 0 H -3.333333 Z M 119.9424,104.709 c 0.0381,0.3696 0.0576,0.7447 0.0576,1.1243 0,5.9831 -4.8502,10.8334 -10.8333,10.8334 -3.8596,0 -7.2478,-2.0184 -9.1667,-5.0572 -1.91886,3.0388 -5.30706,5.0572 -9.16667,5.0572 C 84.85025,116.6667 80,111.8164 80,105.8333 c 0,-0.0247 8e-5,-0.0495 2.5e-4,-0.0742 0.06571,-12.46534 16.67301,-22.42577 19.99779,-22.42577 3.23466,0 18.99626,9.40573 19.94436,21.37567 z" /></clipPath><clipPath
       id="clipPath82"
       clipPathUnits="userSpaceOnUse"><path
         id="path80"
         d="M 0,0 H 200 V 200 H 0 Z" /></clipPath><clipPath
       id="clipPath94"
       clipPathUnits="userSpaceOnUse"><path
         style="clip-rule:evenodd"
         id="path92"
         d="M 10,186.6667 H 190 V 13.33333 H 10 Z M 119.9424,104.709 c 0.0381,0.3696 0.0576,0.7447 0.0576,1.1243 0,5.9831 -4.8502,10.8334 -10.8333,10.8334 -3.8596,0 -7.2478,-2.0184 -9.1667,-5.0572 -1.91886,3.0388 -5.30706,5.0572 -9.16667,5.0572 C 84.85025,116.6667 80,111.8164 80,105.8333 c 0,-0.0247 8e-5,-0.0495 2.5e-4,-0.0742 0.06571,-12.46534 16.67301,-22.42577 19.99779,-22.42577 3.23466,0 18.99626,9.40573 19.94436,21.37567 z" /></clipPath><clipPath
       id="clipPath100"
       clipPathUnits="userSpaceOnUse"><path
         id="path98"
         d="M 0,0 H 200 V 200 H 0 Z" /></clipPath><clipPath
       id="clipPath112"
       clipPathUnits="userSpaceOnUse"><path
         style="clip-rule:evenodd"
         id="path110"
         d="M 13.33333,183.3333 H 186.6667 V 16.66667 H 13.33333 Z M 119.9424,104.709 c 0.0381,0.3696 0.0576,0.7447 0.0576,1.1243 0,5.9831 -4.8502,10.8334 -10.8333,10.8334 -3.8596,0 -7.2478,-2.0184 -9.1667,-5.0572 -1.91886,3.0388 -5.30706,5.0572 -9.16667,5.0572 C 84.85025,116.6667 80,111.8164 80,105.8333 c 0,-0.0247 8e-5,-0.0495 2.5e-4,-0.0742 0.06571,-12.46534 16.67301,-22.42577 19.99779,-22.42577 3.23466,0 18.99626,9.40573 19.94436,21.37567 z" /></clipPath><clipPath
       id="clipPath118"
       clipPathUnits="userSpaceOnUse"><path
         id="path116"
         d="M 0,0 H 200 V 200 H 0 Z" /></clipPath><clipPath
       id="clipPath130"
       clipPathUnits="userSpaceOnUse"><path
         style="clip-rule:evenodd"
         id="path128"
         d="M 26.66667,170 H 173.3333 V 30 H 26.66667 Z m 93.27573,-65.291 c 0.0381,0.3696 0.0576,0.7447 0.0576,1.1243 0,5.9831 -4.8502,10.8334 -10.8333,10.8334 -3.8596,0 -7.2478,-2.0184 -9.1667,-5.0572 -1.91886,3.0388 -5.30706,5.0572 -9.16667,5.0572 C 84.85025,116.6667 80,111.8164 80,105.8333 c 0,-0.0247 8e-5,-0.0495 2.5e-4,-0.0742 0.06571,-12.46534 16.67301,-22.42577 19.99779,-22.42577 3.23466,0 18.99626,9.40573 19.94436,21.37567 z" /></clipPath><clipPath
       id="clipPath136"
       clipPathUnits="userSpaceOnUse"><path
         id="path134"
         d="M 0,0 H 200 V 200 H 0 Z" /></clipPath><clipPath
       id="clipPath148"
       clipPathUnits="userSpaceOnUse"><path
         style="clip-rule:evenodd"
         id="path146"
         d="M 30,166.6667 H 170 V 33.33333 H 30 Z m 89.9424,-61.9577 c 0.0381,0.3696 0.0576,0.7447 0.0576,1.1243 0,5.9831 -4.8502,10.8334 -10.8333,10.8334 -3.8596,0 -7.2478,-2.0184 -9.1667,-5.0572 -1.91886,3.0388 -5.30706,5.0572 -9.16667,5.0572 C 84.85025,116.6667 80,111.8164 80,105.8333 c 0,-0.0247 8e-5,-0.0495 2.5e-4,-0.0742 0.06571,-12.46534 16.67301,-22.42577 19.99779,-22.42577 3.23466,0 18.99626,9.40573 19.94436,21.37567 z" /></clipPath><clipPath
       id="clipPath154"
       clipPathUnits="userSpaceOnUse"><path
         id="path152"
         d="M 0,0 H 200 V 200 H 0 Z" /></clipPath><clipPath
       id="clipPath166"
       clipPathUnits="userSpaceOnUse"><path
         style="clip-rule:evenodd"
         id="path164"
         d="M 43.33333,153.3333 H 156.6667 V 46.66667 H 43.33333 Z M 119.9424,104.709 c 0.0381,0.3696 0.0576,0.7447 0.0576,1.1243 0,5.9831 -4.8502,10.8334 -10.8333,10.8334 -3.8596,0 -7.2478,-2.0184 -9.1667,-5.0572 -1.91886,3.0388 -5.30706,5.0572 -9.16667,5.0572 C 84.85025,116.6667 80,111.8164 80,105.8333 c 0,-0.0247 8e-5,-0.0495 2.5e-4,-0.0742 0.06571,-12.46534 16.67301,-22.42577 19.99779,-22.42577 3.23466,0 18.99626,9.40573 19.94436,21.37567 z" /></clipPath><clipPath
       id="clipPath172"
       clipPathUnits="userSpaceOnUse"><path
         id="path170"
         d="M 0,0 H 200 V 200 H 0 Z" /></clipPath><clipPath
       id="clipPath184"
       clipPathUnits="userSpaceOnUse"><path
         style="clip-rule:evenodd"
         id="path182"
         d="m 180.2917,-140.0116 c -4.3636,-0.188 -8.1481,-2.6409 -10.2363,-6.2274 l -2.8124,-1.2452 -0.4029,14.9946 c 0.8203,0.0221 1.6421,0.0368 2.463,0.0441 l 0.134,-14.9994 -2.8766,1.2857 c -2.0973,3.5434 -5.8581,5.9616 -10.1894,6.1476 4.6492,9.0922 14.0065,15.0116 24.461,15.0116 15.2308,0 27.5012,-12.425 27.5012,-27.6587 0,-0.4163 -0.009,-0.832 -0.0277,-1.2469 l 0.009,0.2572 C 207.7121,-175.6959 182.0282,-200 168.3309,-200 c -13.9596,0 -39.9976,24.8581 -39.9976,47.3438 0,15.2323 12.2693,27.6562 27.4988,27.6562 10.4559,0 19.8121,-5.9213 24.4596,-15.0116 z" /></clipPath><clipPath
       id="clipPath194"
       clipPathUnits="userSpaceOnUse"><path
         style="clip-rule:evenodd"
         id="path192"
         d="M 50,-46.66667 H 286.6667 V -278.3333 H 50 Z M 193.3205,-153.2385 c 0.008,0.1922 0.0128,0.3855 0.0128,0.5798 0,6.9912 -5.597,12.6587 -12.5012,12.6587 -5.0686,0 -9.4327,-3.0545 -11.395,-7.4449 -0.7306,-0.007 -1.4628,-0.0196 -2.1941,-0.0393 -1.9531,4.4114 -6.3276,7.4842 -11.4109,7.4842 -6.9029,0 -12.4988,-5.6664 -12.4988,-12.6562 0,-18.2813 23.6113,-32.3438 24.9976,-32.3438 1.3764,0 24.4976,13.7648 24.9896,31.7615 z" /></clipPath><clipPath
       id="clipPath206"
       clipPathUnits="userSpaceOnUse"><path
         style="clip-rule:evenodd"
         id="path204"
         d="M 63.33333,-60 H 273.3333 V -265 H 63.33333 Z m 129.98717,-93.2385 c 0.008,0.1922 0.0128,0.3855 0.0128,0.5798 0,6.9912 -5.597,12.6587 -12.5012,12.6587 -5.0686,0 -9.4327,-3.0545 -11.395,-7.4449 -0.7306,-0.007 -1.4628,-0.0196 -2.1941,-0.0393 -1.9531,4.4114 -6.3276,7.4842 -11.4109,7.4842 -6.9029,0 -12.4988,-5.6664 -12.4988,-12.6562 0,-18.2813 23.6113,-32.3438 24.9976,-32.3438 1.3764,0 24.4976,13.7648 24.9896,31.7615 z" /></clipPath><clipPath
       id="clipPath218"
       clipPathUnits="userSpaceOnUse"><path
         style="clip-rule:evenodd"
         id="path216"
         d="M 76.66667,-73.33333 H 260 V -251.6667 H 76.66667 Z M 193.3205,-153.2385 c 0.008,0.1922 0.0128,0.3855 0.0128,0.5798 0,6.9912 -5.597,12.6587 -12.5012,12.6587 -5.0686,0 -9.4327,-3.0545 -11.395,-7.4449 -0.7306,-0.007 -1.4628,-0.0196 -2.1941,-0.0393 -1.9531,4.4114 -6.3276,7.4842 -11.4109,7.4842 -6.9029,0 -12.4988,-5.6664 -12.4988,-12.6562 0,-18.2813 23.6113,-32.3438 24.9976,-32.3438 1.3764,0 24.4976,13.7648 24.9896,31.7615 z" /></clipPath><clipPath
       id="clipPath230"
       clipPathUnits="userSpaceOnUse"><path
         style="clip-rule:evenodd"
         id="path228"
         d="M 90,-86.66667 H 246.6667 V -238.3333 H 90 Z m 103.3205,-66.57183 c 0.008,0.1922 0.0128,0.3855 0.0128,0.5798 0,6.9912 -5.597,12.6587 -12.5012,12.6587 -5.0686,0 -9.4327,-3.0545 -11.395,-7.4449 -0.7306,-0.007 -1.4628,-0.0196 -2.1941,-0.0393 -1.9531,4.4114 -6.3276,7.4842 -11.4109,7.4842 -6.9029,0 -12.4988,-5.6664 -12.4988,-12.6562 0,-18.2813 23.6113,-32.3438 24.9976,-32.3438 1.3764,0 24.4976,13.7648 24.9896,31.7615 z" /></clipPath><clipPath
       id="clipPath248"
       clipPathUnits="userSpaceOnUse"><path
         style="clip-rule:evenodd"
         id="path246"
         d="m 304.5579,-130.0743 c -3.3234,-0.3898 -6.1869,-2.2838 -7.8912,-4.9829 -1.7044,2.6991 -4.5678,4.5931 -7.8912,4.9829 l -6.2011,3.9157 c 4.9946,7.9098 13.7166,12.8253 23.2589,12.8253 15.1879,0 27.5,-12.3122 27.5,-27.5 0,-1.1207 -0.0679,-2.237 -0.2029,-3.3436 l -16.544,2.0182 16.5819,-1.679 C 331.3181,-162.1111 309.1004,-180 296.6647,-180 c -12.9465,0 -36.4195,19.8049 -36.6622,38.7938 -0.002,0.1863 -0.002,0.1863 -0.002,0.3729 0,15.1878 12.3122,27.5 27.5,27.5 9.5424,0 18.2643,-4.9155 23.259,-12.8253 l -6.2011,-3.9157 z m -10.5452,-31.9959 c 1.4296,-0.8162 2.4223,-1.2631 2.652,-1.2631 0.2271,0 1.1941,0.4047 2.5894,1.1577 l -2.5874,-4.0976 z" /></clipPath><clipPath
       id="clipPath258"
       clipPathUnits="userSpaceOnUse"><path
         style="clip-rule:evenodd"
         id="path256"
         d="m 176.6667,-30 h 240 v -233.3333 h -240 z m 139.9197,-112.1587 c 0.053,0.4343 0.0803,0.8767 0.0803,1.3254 0,5.9831 -4.8503,10.8333 -10.8334,10.8333 -3.8596,0 -7.2478,-2.0184 -9.1666,-5.0572 -1.9189,3.0388 -5.3071,5.0572 -9.1667,5.0572 -5.9831,0 -10.8333,-4.8502 -10.8333,-10.8333 0,-0.0497 3e-4,-0.0992 0.001,-0.1487 0.1536,-12.0199 18.8925,-22.3513 19.997,-22.3513 1.0742,0 18.6944,9.0527 19.9217,21.1746 z" /></clipPath><clipPath
       id="clipPath270"
       clipPathUnits="userSpaceOnUse"><path
         style="clip-rule:evenodd"
         id="path268"
         d="m 186.6667,-40 h 220 v -213.3333 h -220 z m 129.9197,-102.1587 c 0.053,0.4343 0.0803,0.8767 0.0803,1.3254 0,5.9831 -4.8503,10.8333 -10.8334,10.8333 -3.8596,0 -7.2478,-2.0184 -9.1666,-5.0572 -1.9189,3.0388 -5.3071,5.0572 -9.1667,5.0572 -5.9831,0 -10.8333,-4.8502 -10.8333,-10.8333 0,-0.0497 3e-4,-0.0992 0.001,-0.1487 0.1536,-12.0199 18.8925,-22.3513 19.997,-22.3513 1.0742,0 18.6944,9.0527 19.9217,21.1746 z" /></clipPath><clipPath
       id="clipPath282"
       clipPathUnits="userSpaceOnUse"><path
         style="clip-rule:evenodd"
         id="path280"
         d="M 193.3333,-46.66667 H 400 V -246.6667 H 193.3333 Z m 123.2531,-95.49203 c 0.053,0.4343 0.0803,0.8767 0.0803,1.3254 0,5.9831 -4.8503,10.8333 -10.8334,10.8333 -3.8596,0 -7.2478,-2.0184 -9.1666,-5.0572 -1.9189,3.0388 -5.3071,5.0572 -9.1667,5.0572 -5.9831,0 -10.8333,-4.8502 -10.8333,-10.8333 0,-0.0497 3e-4,-0.0992 0.001,-0.1487 0.1536,-12.0199 18.8925,-22.3513 19.997,-22.3513 1.0742,0 18.6944,9.0527 19.9217,21.1746 z" /></clipPath><clipPath
       id="clipPath294"
       clipPathUnits="userSpaceOnUse"><path
         style="clip-rule:evenodd"
         id="path292"
         d="M 203.3333,-56.66667 H 390 V -236.6667 H 203.3333 Z m 113.2531,-85.49203 c 0.053,0.4343 0.0803,0.8767 0.0803,1.3254 0,5.9831 -4.8503,10.8333 -10.8334,10.8333 -3.8596,0 -7.2478,-2.0184 -9.1666,-5.0572 -1.9189,3.0388 -5.3071,5.0572 -9.1667,5.0572 -5.9831,0 -10.8333,-4.8502 -10.8333,-10.8333 0,-0.0497 3e-4,-0.0992 0.001,-0.1487 0.1536,-12.0199 18.8925,-22.3513 19.997,-22.3513 1.0742,0 18.6944,9.0527 19.9217,21.1746 z" /></clipPath><clipPath
       id="clipPath306"
       clipPathUnits="userSpaceOnUse"><path
         style="clip-rule:evenodd"
         id="path304"
         d="M 210,-63.33333 H 383.3333 V -230 H 210 Z m 106.5864,-78.82537 c 0.053,0.4343 0.0803,0.8767 0.0803,1.3254 0,5.9831 -4.8503,10.8333 -10.8334,10.8333 -3.8596,0 -7.2478,-2.0184 -9.1666,-5.0572 -1.9189,3.0388 -5.3071,5.0572 -9.1667,5.0572 -5.9831,0 -10.8333,-4.8502 -10.8333,-10.8333 0,-0.0497 3e-4,-0.0992 0.001,-0.1487 0.1536,-12.0199 18.8925,-22.3513 19.997,-22.3513 1.0742,0 18.6944,9.0527 19.9217,21.1746 z" /></clipPath><clipPath
       id="clipPath318"
       clipPathUnits="userSpaceOnUse"><path
         style="clip-rule:evenodd"
         id="path316"
         d="M 220,-73.33333 H 373.3333 V -220 H 220 Z m 96.5864,-68.82537 c 0.053,0.4343 0.0803,0.8767 0.0803,1.3254 0,5.9831 -4.8503,10.8333 -10.8334,10.8333 -3.8596,0 -7.2478,-2.0184 -9.1666,-5.0572 -1.9189,3.0388 -5.3071,5.0572 -9.1667,5.0572 -5.9831,0 -10.8333,-4.8502 -10.8333,-10.8333 0,-0.0497 3e-4,-0.0992 0.001,-0.1487 0.1536,-12.0199 18.8925,-22.3513 19.997,-22.3513 1.0742,0 18.6944,9.0527 19.9217,21.1746 z" /></clipPath><clipPath
       id="clipPath330"
       clipPathUnits="userSpaceOnUse"><path
         style="clip-rule:evenodd"
         id="path328"
         d="m 226.6667,-80 h 140 v -133.3333 h -140 z m 89.9197,-62.1587 c 0.053,0.4343 0.0803,0.8767 0.0803,1.3254 0,5.9831 -4.8503,10.8333 -10.8334,10.8333 -3.8596,0 -7.2478,-2.0184 -9.1666,-5.0572 -1.9189,3.0388 -5.3071,5.0572 -9.1667,5.0572 -5.9831,0 -10.8333,-4.8502 -10.8333,-10.8333 0,-0.0497 3e-4,-0.0992 0.001,-0.1487 0.1536,-12.0199 18.8925,-22.3513 19.997,-22.3513 1.0742,0 18.6944,9.0527 19.9217,21.1746 z" /></clipPath><clipPath
       id="clipPath342"
       clipPathUnits="userSpaceOnUse"><path
         style="clip-rule:evenodd"
         id="path340"
         d="m 236.6667,-90 h 120 v -113.3333 h -120 z m 79.9197,-52.1587 c 0.053,0.4343 0.0803,0.8767 0.0803,1.3254 0,5.9831 -4.8503,10.8333 -10.8334,10.8333 -3.8596,0 -7.2478,-2.0184 -9.1666,-5.0572 -1.9189,3.0388 -5.3071,5.0572 -9.1667,5.0572 -5.9831,0 -10.8333,-4.8502 -10.8333,-10.8333 0,-0.0497 3e-4,-0.0992 0.001,-0.1487 0.1536,-12.0199 18.8925,-22.3513 19.997,-22.3513 1.0742,0 18.6944,9.0527 19.9217,21.1746 z" /></clipPath></defs><g
     transform="matrix(1.3333333,0,0,-1.3333333,0,266.66667)"
     id="g10"><g
       id="g12" /><g
       id="g14"><path
         id="path16"
         style="fill:#000000;fill-opacity:1;fill-rule:nonzero;stroke:none"
         d="M 0,200 H 200 V 0 H 0 Z" /></g><g
       id="g18"><g
         clip-path="url(#clipPath24)"
         id="g20"><g
           clip-path="url(#clipPath30)"
           id="g26"><path
             id="path32"
             style="fill:#e12323;fill-opacity:1;fill-rule:nonzero;stroke:none"
             d="M 63.33333,133.3333 H 136.6667 V 66.66667 H 63.33333 Z" /></g></g></g><g
       id="g34"><g
         clip-path="url(#clipPath40)"
         id="g36"><g
           clip-path="url(#clipPath46)"
           id="g42"><g
             transform="matrix(3.333333,0,0,-3.333333,80,116.6667)"
             id="g48"><path
               id="path50"
               style="fill:none;stroke:#f51553;stroke-width:40;stroke-linecap:round;stroke-linejoin:round;stroke-miterlimit:10;stroke-dasharray:none;stroke-opacity:1"
               d="M 11.98271,3.587288 C 11.99414,3.476417 12,3.363893 12,3.25 12,1.455075 10.54493,0 8.75,0 7.592117,0 6.575658,0.6055111 6,1.517157 5.424342,0.6055111 4.407883,0 3.25,0 1.455075,0 0,1.455075 0,3.25 0,3.257431 2.493937e-5,3.264856 7.473898e-5,3.272275 0.01978812,7.011871 5.001979,10 5.999411,10 6.969814,10 11.69829,7.178281 11.98271,3.587288 Z" /></g></g></g></g><g
       id="g52"><g
         clip-path="url(#clipPath58)"
         id="g54"><g
           clip-path="url(#clipPath64)"
           id="g60"><g
             transform="matrix(3.333333,0,0,-3.333333,80,116.6667)"
             id="g66"><path
               id="path68"
               style="fill:none;stroke:#000000;stroke-width:32;stroke-linecap:round;stroke-linejoin:round;stroke-miterlimit:10;stroke-dasharray:none;stroke-opacity:1"
               d="M 11.98271,3.587288 C 11.99414,3.476417 12,3.363893 12,3.25 12,1.455075 10.54493,0 8.75,0 7.592117,0 6.575658,0.6055111 6,1.517157 5.424342,0.6055111 4.407883,0 3.25,0 1.455075,0 0,1.455075 0,3.25 0,3.257431 2.493937e-5,3.264856 7.473898e-5,3.272275 0.01978812,7.011871 5.001979,10 5.999411,10 6.969814,10 11.69829,7.178281 11.98271,3.587288 Z" /></g></g></g></g><g
       id="g70"><g
         clip-path="url(#clipPath76)"
         id="g72"><g
           clip-path="url(#clipPath82)"
           id="g78"><g
             transform="matrix(3.333333,0,0,-3.333333,80,116.6667)"
             id="g84"><path
               id="path86"
               style="fill:none;stroke:#38e9df;stroke-width:30;stroke-linecap:round;stroke-linejoin:round;stroke-miterlimit:10;stroke-dasharray:none;stroke-opacity:1"
               d="M 11.98271,3.587288 C 11.99414,3.476417 12,3.363893 12,3.25 12,1.455075 10.54493,0 8.75,0 7.592117,0 6.575658,0.6055111 6,1.517157 5.424342,0.6055111 4.407883,0 3.25,0 1.455075,0 0,1.455075 0,3.25 0,3.257431 2.493937e-5,3.264856 7.473898e-5,3.272275 0.01978812,7.011871 5.001979,10 5.999411,10 6.969814,10 11.69829,7.178281 11.98271,3.587288 Z" /></g></g></g></g><g
       id="g88"><g
         clip-path="url(#clipPath94)"
         id="g90"><g
           clip-path="url(#clipPath100)"
           id="g96"><g
             transform="matrix(3.333333,0,0,-3.333333,80,116.6667)"
             id="g102"><path
               id="path104"
               style="fill:none;stroke:#000000;stroke-width:22;stroke-linecap:round;stroke-linejoin:round;stroke-miterlimit:10;stroke-dasharray:none;stroke-opacity:1"
               d="M 11.98271,3.587288 C 11.99414,3.476417 12,3.363893 12,3.25 12,1.455075 10.54493,0 8.75,0 7.592117,0 6.575658,0.6055111 6,1.517157 5.424342,0.6055111 4.407883,0 3.25,0 1.455075,0 0,1.455075 0,3.25 0,3.257431 2.493937e-5,3.264856 7.473898e-5,3.272275 0.01978812,7.011871 5.001979,10 5.999411,10 6.969814,10 11.69829,7.178281 11.98271,3.587288 Z" /></g></g></g></g><g
       id="g106"><g
         clip-path="url(#clipPath112)"
         id="g108"><g
           clip-path="url(#clipPath118)"
           id="g114"><g
             transform="matrix(3.333333,0,0,-3.333333,80,116.6667)"
             id="g120"><path
               id="path122"
               style="fill:none;stroke:#fde53b;stroke-width:20;stroke-linecap:round;stroke-linejoin:round;stroke-miterlimit:10;stroke-dasharray:none;stroke-opacity:1"
               d="M 11.98271,3.587288 C 11.99414,3.476417 12,3.363893 12,3.25 12,1.455075 10.54493,0 8.75,0 7.592117,0 6.575658,0.6055111 6,1.517157 5.424342,0.6055111 4.407883,0 3.25,0 1.455075,0 0,1.455075 0,3.25 0,3.257431 2.493937e-5,3.264856 7.473898e-5,3.272275 0.01978812,7.011871 5.001979,10 5.999411,10 6.969814,10 11.69829,7.178281 11.98271,3.587288 Z" /></g></g></g></g><g
       id="g124"><g
         clip-path="url(#clipPath130)"
         id="g126"><g
           clip-path="url(#clipPath136)"
           id="g132"><g
             transform="matrix(3.333333,0,0,-3.333333,80,116.6667)"
             id="g138"><path
               id="path140"
               style="fill:none;stroke:#000000;stroke-width:12;stroke-linecap:round;stroke-linejoin:round;stroke-miterlimit:10;stroke-dasharray:none;stroke-opacity:1"
               d="M 11.98271,3.587288 C 11.99414,3.476417 12,3.363893 12,3.25 12,1.455075 10.54493,0 8.75,0 7.592117,0 6.575658,0.6055111 6,1.517157 5.424342,0.6055111 4.407883,0 3.25,0 1.455075,0 0,1.455075 0,3.25 0,3.257431 2.493937e-5,3.264856 7.473898e-5,3.272275 0.01978812,7.011871 5.001979,10 5.999411,10 6.969814,10 11.69829,7.178281 11.98271,3.587288 Z" /></g></g></g></g><g
       id="g142"><g
         clip-path="url(#clipPath148)"
         id="g144"><g
           clip-path="url(#clipPath154)"
           id="g150"><g
             transform="matrix(3.333333,0,0,-3.333333,80,116.6667)"
             id="g156"><path
               id="path158"
               style="fill:none;stroke:#2bb7fc;stroke-width:10;stroke-linecap:round;stroke-linejoin:round;stroke-miterlimit:10;stroke-dasharray:none;stroke-opacity:1"
               d="M 11.98271,3.587288 C 11.99414,3.476417 12,3.363893 12,3.25 12,1.455075 10.54493,0 8.75,0 7.592117,0 6.575658,0.6055111 6,1.517157 5.424342,0.6055111 4.407883,0 3.25,0 1.455075,0 0,1.455075 0,3.25 0,3.257431 2.493937e-5,3.264856 7.473898e-5,3.272275 0.01978812,7.011871 5.001979,10 5.999411,10 6.969814,10 11.69829,7.178281 11.98271,3.587288 Z" /></g></g></g></g><g
       id="g160"><g
         clip-path="url(#clipPath166)"
         id="g162"><g
           clip-path="url(#clipPath172)"
           id="g168"><g
             transform="matrix(3.333333,0,0,-3.333333,80,116.6667)"
             id="g174"><path
               id="path176"
               style="fill:none;stroke:#000000;stroke-width:2;stroke-linecap:round;stroke-linejoin:round;stroke-miterlimit:10;stroke-dasharray:none;stroke-opacity:1"
               d="M 11.98271,3.587288 C 11.99414,3.476417 12,3.363893 12,3.25 12,1.455075 10.54493,0 8.75,0 7.592117,0 6.575658,0.6055111 6,1.517157 5.424342,0.6055111 4.407883,0 3.25,0 1.455075,0 0,1.455075 0,3.25 0,3.257431 2.493937e-5,3.264856 7.473898e-5,3.272275 0.01978812,7.011871 5.001979,10 5.999411,10 6.969814,10 11.69829,7.178281 11.98271,3.587288 Z" /></g></g></g></g><g
       id="g178"><g
         clip-path="url(#clipPath184)"
         id="g180"><path
           id="path186"
           style="fill:#e12323;fill-opacity:1;fill-rule:nonzero;stroke:none"
           d="M 126.6667,-123.3333 H 210 v -78.3334 h -83.3333 z" /></g></g><g
       id="g188"><g
         clip-path="url(#clipPath194)"
         id="g190"><g
           transform="matrix(3.333333,0,0,-3.333333,143.3333,-140)"
           id="g196"><path
             id="path198"
             style="fill:none;stroke:#fde53b;stroke-width:36;stroke-linecap:butt;stroke-linejoin:miter;stroke-miterlimit:10;stroke-dasharray:none;stroke-opacity:1"
             d="M 14.99614,3.971549 C 14.9987,3.913899 15,3.855913 15,3.797621 15,1.700253 13.3209,0 11.24963,0 9.72904,0 8.419813,0.9163565 7.831138,2.233465 7.611939,2.235424 7.392277,2.239351 7.17289,2.245246 6.586982,0.9218475 5.274622,0 3.749632,0 1.678767,0 0,1.699919 0,3.796875 0,9.28125 7.083374,13.5 7.499263,13.5 7.912184,13.5 14.84854,9.370571 14.99614,3.971549 Z" /></g></g></g><g
       id="g200"><g
         clip-path="url(#clipPath206)"
         id="g202"><g
           transform="matrix(3.333333,0,0,-3.333333,143.3333,-140)"
           id="g208"><path
             id="path210"
             style="fill:none;stroke:#f51553;stroke-width:28;stroke-linecap:butt;stroke-linejoin:miter;stroke-miterlimit:10;stroke-dasharray:none;stroke-opacity:1"
             d="M 14.99614,3.971549 C 14.9987,3.913899 15,3.855913 15,3.797621 15,1.700253 13.3209,0 11.24963,0 9.72904,0 8.419813,0.9163565 7.831138,2.233465 7.611939,2.235424 7.392277,2.239351 7.17289,2.245246 6.586982,0.9218475 5.274622,0 3.749632,0 1.678767,0 0,1.699919 0,3.796875 0,9.28125 7.083374,13.5 7.499263,13.5 7.912184,13.5 14.84854,9.370571 14.99614,3.971549 Z" /></g></g></g><g
       id="g212"><g
         clip-path="url(#clipPath218)"
         id="g214"><g
           transform="matrix(3.333333,0,0,-3.333333,143.3333,-140)"
           id="g220"><path
             id="path222"
             style="fill:none;stroke:#2bb7fc;stroke-width:20;stroke-linecap:butt;stroke-linejoin:miter;stroke-miterlimit:10;stroke-dasharray:none;stroke-opacity:1"
             d="M 14.99614,3.971549 C 14.9987,3.913899 15,3.855913 15,3.797621 15,1.700253 13.3209,0 11.24963,0 9.72904,0 8.419813,0.9163565 7.831138,2.233465 7.611939,2.235424 7.392277,2.239351 7.17289,2.245246 6.586982,0.9218475 5.274622,0 3.749632,0 1.678767,0 0,1.699919 0,3.796875 0,9.28125 7.083374,13.5 7.499263,13.5 7.912184,13.5 14.84854,9.370571 14.99614,3.971549 Z" /></g></g></g><g
       id="g224"><g
         clip-path="url(#clipPath230)"
         id="g226"><g
           transform="matrix(3.333333,0,0,-3.333333,143.3333,-140)"
           id="g232"><path
             id="path234"
             style="fill:none;stroke:#38e9df;stroke-width:12;stroke-linecap:butt;stroke-linejoin:miter;stroke-miterlimit:10;stroke-dasharray:none;stroke-opacity:1"
             d="M 14.99614,3.971549 C 14.9987,3.913899 15,3.855913 15,3.797621 15,1.700253 13.3209,0 11.24963,0 9.72904,0 8.419813,0.9163565 7.831138,2.233465 7.611939,2.235424 7.392277,2.239351 7.17289,2.245246 6.586982,0.9218475 5.274622,0 3.749632,0 1.678767,0 0,1.699919 0,3.796875 0,9.28125 7.083374,13.5 7.499263,13.5 7.912184,13.5 14.84854,9.370571 14.99614,3.971549 Z" /></g></g></g><g
       id="g236"><g
         transform="matrix(3.333333,0,0,-3.333333,143.3333,-140)"
         id="g238"><path
           id="path240"
           style="fill:none;stroke:#e12323;stroke-width:2;stroke-linecap:butt;stroke-linejoin:miter;stroke-miterlimit:10;stroke-dasharray:none;stroke-opacity:1"
           d="M 14.99614,3.971549 C 14.9987,3.913899 15,3.855913 15,3.797621 15,1.700253 13.3209,0 11.24963,0 9.72904,0 8.419813,0.9163565 7.831138,2.233465 7.611939,2.235424 7.392277,2.239351 7.17289,2.245246 6.586982,0.9218475 5.274622,0 3.749632,0 1.678767,0 0,1.699919 0,3.796875 0,9.28125 7.083374,13.5 7.499263,13.5 7.912184,13.5 14.84854,9.370571 14.99614,3.971549 Z" /></g></g><g
       id="g242"><g
         clip-path="url(#clipPath248)"
         id="g244"><path
           id="path250"
           style="fill:#e12323;fill-opacity:1;fill-rule:nonzero;stroke:none"
           d="m 260,-113.3333 h 73.3333 V -180 H 260 Z" /></g></g><g
       id="g252"><g
         clip-path="url(#clipPath258)"
         id="g254"><g
           transform="matrix(3.333333,0,0,-3.333333,276.6667,-130)"
           id="g260"><path
             id="path262"
             style="fill:none;stroke:#fde53b;stroke-width:40;stroke-linecap:butt;stroke-linejoin:miter;stroke-miterlimit:10;stroke-dasharray:none;stroke-opacity:1"
             d="M 11.97592,3.647622 C 11.99182,3.517306 12,3.384609 12,3.25 12,1.455075 10.54493,0 8.75,0 7.592117,0 6.575658,0.6055111 6,1.517157 5.424342,0.6055111 4.407883,0 3.25,0 1.455075,0 0,1.455075 0,3.25 0,3.264893 1.00177e-4,3.279763 2.99894e-4,3.294609 0.04637985,6.900574 5.668064,10 5.999411,10 6.32166,10 11.60772,7.284175 11.97592,3.647622 Z" /></g></g></g><g
       id="g264"><g
         clip-path="url(#clipPath270)"
         id="g266"><g
           transform="matrix(3.333333,0,0,-3.333333,276.6667,-130)"
           id="g272"><path
             id="path274"
             style="fill:none;stroke:#000000;stroke-width:34;stroke-linecap:butt;stroke-linejoin:miter;stroke-miterlimit:10;stroke-dasharray:none;stroke-opacity:1"
             d="M 11.97592,3.647622 C 11.99182,3.517306 12,3.384609 12,3.25 12,1.455075 10.54493,0 8.75,0 7.592117,0 6.575658,0.6055111 6,1.517157 5.424342,0.6055111 4.407883,0 3.25,0 1.455075,0 0,1.455075 0,3.25 0,3.264893 1.00177e-4,3.279763 2.99894e-4,3.294609 0.04637985,6.900574 5.668064,10 5.999411,10 6.32166,10 11.60772,7.284175 11.97592,3.647622 Z" /></g></g></g><g
       id="g276"><g
         clip-path="url(#clipPath282)"
         id="g278"><g
           transform="matrix(3.333333,0,0,-3.333333,276.6667,-130)"
           id="g284"><path
             id="path286"
             style="fill:none;stroke:#f51553;stroke-width:30;stroke-linecap:butt;stroke-linejoin:miter;stroke-miterlimit:10;stroke-dasharray:none;stroke-opacity:1"
             d="M 11.97592,3.647622 C 11.99182,3.517306 12,3.384609 12,3.25 12,1.455075 10.54493,0 8.75,0 7.592117,0 6.575658,0.6055111 6,1.517157 5.424342,0.6055111 4.407883,0 3.25,0 1.455075,0 0,1.455075 0,3.25 0,3.264893 1.00177e-4,3.279763 2.99894e-4,3.294609 0.04637985,6.900574 5.668064,10 5.999411,10 6.32166,10 11.60772,7.284175 11.97592,3.647622 Z" /></g></g></g><g
       id="g288"><g
         clip-path="url(#clipPath294)"
         id="g290"><g
           transform="matrix(3.333333,0,0,-3.333333,276.6667,-130)"
           id="g296"><path
             id="path298"
             style="fill:none;stroke:#000000;stroke-width:24;stroke-linecap:butt;stroke-linejoin:miter;stroke-miterlimit:10;stroke-dasharray:none;stroke-opacity:1"
             d="M 11.97592,3.647622 C 11.99182,3.517306 12,3.384609 12,3.25 12,1.455075 10.54493,0 8.75,0 7.592117,0 6.575658,0.6055111 6,1.517157 5.424342,0.6055111 4.407883,0 3.25,0 1.455075,0 0,1.455075 0,3.25 0,3.264893 1.00177e-4,3.279763 2.99894e-4,3.294609 0.04637985,6.900574 5.668064,10 5.999411,10 6.32166,10 11.60772,7.284175 11.97592,3.647622 Z" /></g></g></g><g
       id="g300"><g
         clip-path="url(#clipPath306)"
         id="g302"><g
           transform="matrix(3.333333,0,0,-3.333333,276.6667,-130)"
           id="g308"><path
             id="path310"
             style="fill:none;stroke:#2bb7fc;stroke-width:20;stroke-linecap:butt;stroke-linejoin:miter;stroke-miterlimit:10;stroke-dasharray:none;stroke-opacity:1"
             d="M 11.97592,3.647622 C 11.99182,3.517306 12,3.384609 12,3.25 12,1.455075 10.54493,0 8.75,0 7.592117,0 6.575658,0.6055111 6,1.517157 5.424342,0.6055111 4.407883,0 3.25,0 1.455075,0 0,1.455075 0,3.25 0,3.264893 1.00177e-4,3.279763 2.99894e-4,3.294609 0.04637985,6.900574 5.668064,10 5.999411,10 6.32166,10 11.60772,7.284175 11.97592,3.647622 Z" /></g></g></g><g
       id="g312"><g
         clip-path="url(#clipPath318)"
         id="g314"><g
           transform="matrix(3.333333,0,0,-3.333333,276.6667,-130)"
           id="g320"><path
             id="path322"
             style="fill:none;stroke:#000000;stroke-width:14;stroke-linecap:butt;stroke-linejoin:miter;stroke-miterlimit:10;stroke-dasharray:none;stroke-opacity:1"
             d="M 11.97592,3.647622 C 11.99182,3.517306 12,3.384609 12,3.25 12,1.455075 10.54493,0 8.75,0 7.592117,0 6.575658,0.6055111 6,1.517157 5.424342,0.6055111 4.407883,0 3.25,0 1.455075,0 0,1.455075 0,3.25 0,3.264893 1.00177e-4,3.279763 2.99894e-4,3.294609 0.04637985,6.900574 5.668064,10 5.999411,10 6.32166,10 11.60772,7.284175 11.97592,3.647622 Z" /></g></g></g><g
       id="g324"><g
         clip-path="url(#clipPath330)"
         id="g326"><g
           transform="matrix(3.333333,0,0,-3.333333,276.6667,-130)"
           id="g332"><path
             id="path334"
             style="fill:none;stroke:#38e9df;stroke-width:10;stroke-linecap:butt;stroke-linejoin:miter;stroke-miterlimit:10;stroke-dasharray:none;stroke-opacity:1"
             d="M 11.97592,3.647622 C 11.99182,3.517306 12,3.384609 12,3.25 12,1.455075 10.54493,0 8.75,0 7.592117,0 6.575658,0.6055111 6,1.517157 5.424342,0.6055111 4.407883,0 3.25,0 1.455075,0 0,1.455075 0,3.25 0,3.264893 1.00177e-4,3.279763 2.99894e-4,3.294609 0.04637985,6.900574 5.668064,10 5.999411,10 6.32166,10 11.60772,7.284175 11.97592,3.647622 Z" /></g></g></g><g
       id="g336"><g
         clip-path="url(#clipPath342)"
         id="g338"><g
           transform="matrix(3.333333,0,0,-3.333333,276.6667,-130)"
           id="g344"><path
             id="path346"
             style="fill:none;stroke:#000000;stroke-width:4;stroke-linecap:butt;stroke-linejoin:miter;stroke-miterlimit:10;stroke-dasharray:none;stroke-opacity:1"
             d="M 11.97592,3.647622 C 11.99182,3.517306 12,3.384609 12,3.25 12,1.455075 10.54493,0 8.75,0 7.592117,0 6.575658,0.6055111 6,1.517157 5.424342,0.6055111 4.407883,0 3.25,0 1.455075,0 0,1.455075 0,3.25 0,3.264893 1.00177e-4,3.279763 2.99894e-4,3.294609 0.04637985,6.900574 5.668064,10 5.999411,10 6.32166,10 11.60772,7.284175 11.97592,3.647622 Z" /></g></g></g></g></svg>